# xmcd CD database file
#
# Track frame offsets:
#	150
#	26127
#	46497
#
# Disc length: 964 seconds
#
# Revision: 0
# Processed by: cddbd v1.5.1PL0 Copyright (c) Steve Scherf et al.
# Submitted via: CDex 1.50beta9
#
DISCID=2103c203
DTITLE=中島みゆき - たかが愛
DYEAR=1900
DGENRE=JPop
TTITLE0=たかが愛
TTITLE1=目を開けて最初に君を見たい
TTITLE2=たかが愛 (TV MIX)
EXTD=
EXTT0=
EXTT1=
EXTT2=
PLAYORDER=
